<?xml version="1.0" encoding="UTF-8"?>
<svg id="Layer_1" data-name="Layer 1" xmlns="http://www.w3.org/2000/svg" viewBox="0 0 20.02 20.02">
  <defs>
    <style>
      .cls-1 {
        fill: #2cb67d;
        stroke-width: 0px;
      }
    </style>
  </defs>
  <path class="cls-1" d="M19.23,6.11c-.53-1.22-1.24-2.28-2.14-3.18-.9-.9-1.96-1.61-3.18-2.14-1.22-.53-2.52-.79-3.9-.79s-2.68.26-3.9.79c-1.22.53-2.28,1.24-3.18,2.14-.9.9-1.61,1.96-2.14,3.18-.53,1.22-.79,2.52-.79,3.9s.26,2.68.79,3.9c.53,1.22,1.24,2.28,2.14,3.18.9.9,1.96,1.61,3.18,2.14,1.22.53,2.52.79,3.9.79s2.68-.26,3.9-.79c1.22-.53,2.28-1.24,3.18-2.14.9-.9,1.61-1.96,2.14-3.18.53-1.22.79-2.52.79-3.9s-.26-2.68-.79-3.9ZM15.75,7.35l-7.36,7.24h-.01s.01,0,.01,0l-4.12-4.05c-.45-.44-.45-1.16,0-1.6.45-.44,1.18-.44,1.62,0l2.49,2.45,5.74-5.64c.45-.44,1.18-.44,1.62,0s.45,1.16,0,1.6Z"/>
</svg>