<?xml version="1.0" encoding="UTF-8"?>
<svg id="Layer_1" data-name="Layer 1" xmlns="http://www.w3.org/2000/svg" viewBox="0 0 18 18">
  <defs>
    <style>
      .cls-1 {
        fill: #7289f4;
        stroke-width: 0px;
      }
    </style>
  </defs>
  <path class="cls-1" d="M12,18c-1.97,0-3.72-.56-5.25-1.68s-2.62-2.56-3.25-4.33H0v-2h3.05c-.03-.18-.05-.35-.05-.5v-1c0-.15.02-.32.05-.5H0v-2h3.5c.63-1.77,1.72-3.21,3.25-4.33s3.28-1.68,5.25-1.68c1.15,0,2.24.2,3.26.6s1.94.97,2.74,1.7l-1.75,1.75c-.58-.48-1.24-.86-1.96-1.14s-1.49-.41-2.29-.41c-1.25,0-2.39.32-3.41.96s-1.8,1.49-2.34,2.54h5.75v2h-6.4c-.03.18-.06.35-.08.5s-.03.32-.03.5,0,.35.03.5.04.32.08.5h6.4v2h-5.75c.53,1.05,1.31,1.9,2.34,2.54,1.03.64,2.16.96,3.41.96.8,0,1.57-.14,2.31-.41s1.39-.65,1.94-1.14l1.75,1.75c-.8.73-1.71,1.3-2.74,1.7s-2.11.6-3.26.6Z"/>
</svg>