<?xml version="1.0" encoding="UTF-8"?>
<svg id="Layer_1" data-name="Layer 1" xmlns="http://www.w3.org/2000/svg" viewBox="0 0 20 16">
  <defs>
    <style>
      .cls-1 {
        fill: #7289f4;
        stroke-width: 0px;
      }
    </style>
  </defs>
  <path class="cls-1" d="M8.45,11.5c.4.4.92.6,1.55.59s1.1-.24,1.4-.69l5.6-8.4-8.4,5.6c-.45.3-.69.76-.71,1.38s.16,1.13.56,1.53ZM10,0c.98,0,1.93.14,2.84.41s1.76.69,2.56,1.24l-1.9,1.2c-.55-.28-1.12-.5-1.71-.64s-1.19-.21-1.79-.21c-2.22,0-4.1.78-5.66,2.34-1.56,1.56-2.34,3.45-2.34,5.66,0,.7.1,1.39.29,2.08s.46,1.33.81,1.93h13.8c.38-.63.66-1.29.84-1.98s.26-1.39.26-2.13c0-.6-.07-1.18-.21-1.75s-.35-1.12-.64-1.65l1.2-1.9c.5.78.9,1.62,1.19,2.5.29.88.45,1.8.46,2.75s-.09,1.86-.33,2.73-.58,1.69-1.03,2.48c-.18.3-.43.53-.75.7s-.65.25-1,.25H3.1c-.35,0-.68-.08-1-.25s-.57-.4-.75-.7c-.43-.75-.77-1.55-1-2.39s-.35-1.73-.35-2.66c0-1.38.26-2.68.79-3.89.53-1.21,1.24-2.27,2.15-3.18s1.97-1.63,3.19-2.15,2.51-.79,3.88-.79Z"/>
</svg>