<?xml version="1.0" encoding="UTF-8"?>
<svg id="Layer_1" data-name="Layer 1" xmlns="http://www.w3.org/2000/svg" viewBox="0 0 15 20">
  <defs>
    <style>
      .cls-1 {
        fill: #7289f4;
        stroke-width: 0px;
      }
    </style>
  </defs>
  <path class="cls-1" d="M7.5,20c-.55,0-1.02-.2-1.41-.59s-.59-.86-.59-1.41h4c0,.55-.2,1.02-.59,1.41s-.86.59-1.41.59ZM3.5,17v-2h8v2H3.5ZM3.75,14c-1.15-.68-2.06-1.6-2.74-2.75s-1.01-2.4-1.01-3.75c0-2.08.73-3.85,2.19-5.31C3.65.73,5.42,0,7.5,0s3.85.73,5.31,2.19,2.19,3.23,2.19,5.31c0,1.35-.34,2.6-1.01,3.75s-1.59,2.07-2.74,2.75H3.75ZM4.35,12h6.3c.75-.53,1.33-1.19,1.74-1.98s.61-1.63.61-2.53c0-1.53-.53-2.83-1.6-3.9s-2.37-1.6-3.9-1.6-2.83.53-3.9,1.6-1.6,2.37-1.6,3.9c0,.9.2,1.74.61,2.53s.99,1.44,1.74,1.98Z"/>
</svg>