<?xml version="1.0" encoding="UTF-8"?>
<svg id="Layer_1" data-name="Layer 1" xmlns="http://www.w3.org/2000/svg" viewBox="0 0 181.22 140.53">
  <defs>
    <style>
      .cls-1 {
        fill: #3953a4;
        stroke-width: 0px;
      }
    </style>
  </defs>
  <path class="cls-1" d="M0,140.53c1.12-26.27,21.84-25.76,41.99-27.88,10.46-1.01,20.34-6.35,26.6-14.77,4.62-6.38,6.24-14.44,7.5-22.32,1.07-6.65,2.77-14.62,8.23-19.37,7.71-6.7,19.17-6.46,28.3-3.62,5.96,1.86,11.28,4.49,16.38,6.86,4.43,1.97,9.58,4.62,14.14,4.33,21.4-3.98-14.06-62.41,38.07-63.76,0,0,0,9,0,9-6.9-.09-15.17.86-19.17,7.19-5.36,9.3-2.89,21-3.09,31.39,0,4.96-.28,10.8-2.7,15.45-4.69,9.06-13.25,10.64-22.37,7.84-12.56-3.44-31.73-15.8-43.27-6.53-1.29,1.21-2.29,3.11-3.11,5.39-1.64,4.62-2.54,10.46-4.24,16.26-4.2,15.86-15.84,27.07-31.39,32.09-8.44,2.38-17.61,2.3-25.84,3.75-11.03,1.79-17.68,6.32-17.04,18.68,0,0-9,0-9,0h0Z"/>
</svg>