<?xml version="1.0" encoding="UTF-8"?>
<svg id="Layer_1" data-name="Layer 1" xmlns="http://www.w3.org/2000/svg" viewBox="0 0 181.22 140.53">
  <defs>
    <style>
      .cls-1 {
        fill: #02995e;
        stroke-width: 0px;
      }
    </style>
  </defs>
  <path class="cls-1" d="M172.22,140.53c.63-12.34-5.98-16.88-17.04-18.68-9.7-1.75-20.89-1.21-30.35-5.41-13.51-5.85-23.1-16.21-26.88-30.44-1.7-5.8-2.6-11.64-4.24-16.26-2.87-9.89-13.67-9.73-22.35-7.45-14,3.01-34.87,19.24-45.71,1.97-7.86-13.25,1.47-34.93-6.47-48.08C15.17,9.86,6.9,8.91,0,9,0,9,0,0,0,0c26.31.73,31.81,15.6,30.48,39.16-.34,10.88-2.14,29.55,14.26,23.43,8.07-2.96,15.15-7.34,23.85-10.02,8.7-2.69,19.41-3.09,27.16,2.7,8.8,6.58,8.65,18.87,10.91,28.46,1.17,5.22,3.02,10.01,5.96,14.16,4.57,6.22,11.44,10.82,18.75,13.23,10.97,3.08,22.93,1.63,34.05,5.6,10.75,3.65,15.53,12.91,15.79,23.82,0,0-9,0-9,0h0Z"/>
</svg>