<?xml version="1.0" encoding="UTF-8"?>
<svg id="Layer_1" data-name="Layer 1" xmlns="http://www.w3.org/2000/svg" viewBox="0 0 142.09 142.09">
  <defs>
    <style>
      .cls-1 {
        fill: #202831;
      }

      .cls-1, .cls-2 {
        stroke-width: 0px;
      }

      .cls-2 {
        fill: #f3755a;
      }
    </style>
  </defs>
  <polygon class="cls-2" points="142.09 71.05 124.23 85.3 132.58 106.58 109.97 109.97 106.58 132.58 85.3 124.23 71.05 142.09 56.79 124.23 35.51 132.58 32.12 109.97 9.51 106.58 17.86 85.3 0 71.05 17.86 56.79 9.51 35.51 32.12 32.12 35.51 9.51 56.79 17.86 71.05 0 85.3 17.86 106.58 9.51 109.97 32.12 132.58 35.51 124.23 56.79 142.09 71.05"/>
  <g>
    <path class="cls-1" d="M38.16,47.15h3.65c.13,0,.24.05.34.14.09.09.14.21.14.34v11.44c0,.13-.05.24-.14.34-.09.09-.21.14-.34.14h-3.65c-.13,0-.24-.05-.34-.14-.09-.09-.14-.21-.14-.34v-3.77h-3.54v3.77c0,.13-.05.24-.14.34-.09.09-.21.14-.34.14h-3.65c-.13,0-.24-.04-.34-.13-.09-.09-.14-.2-.14-.35v-11.44c0-.13.05-.24.14-.34s.21-.14.34-.14h3.65c.13,0,.24.05.34.14s.14.21.14.34v3.63h3.54v-3.63c0-.13.05-.24.14-.34.09-.09.21-.14.34-.14Z"/>
    <path class="cls-1" d="M46.62,59.54h-3.35c-.11,0-.2-.04-.27-.12-.08-.08-.12-.15-.12-.22s0-.12.02-.16l3.86-11.31c.11-.39.37-.58.8-.58h4.92c.42,0,.69.19.8.58l3.86,11.31s.02.09.02.16-.04.14-.12.22c-.08.08-.17.12-.27.12h-3.35c-.38,0-.64-.2-.8-.6l-.44-1.24h-4.32l-.44,1.24c-.15.4-.42.6-.8.6ZM51.27,54.24l-1.26-3.68-1.26,3.68h2.51Z"/>
    <path class="cls-1" d="M69.13,52.96c.82.59,1.23,1.47,1.23,2.64s-.6,2.13-1.79,2.85c-1.19.73-2.77,1.09-4.74,1.09s-3.5-.36-4.59-1.08c-1.09-.72-1.64-1.6-1.64-2.66,0-.26.14-.39.41-.39h3.63c.25,0,.45.07.6.22.33.3.9.45,1.72.45,1.12,0,1.68-.17,1.68-.5,0-.21-.18-.37-.53-.49-.35-.12-1.06-.24-2.11-.35-3.34-.39-5.01-1.62-5.01-3.71,0-1.17.54-2.12,1.61-2.85,1.07-.72,2.51-1.09,4.31-1.09s3.25.39,4.36,1.17,1.66,1.6,1.66,2.47c0,.12-.04.21-.11.28-.08.07-.18.11-.31.11h-3.81c-.21,0-.4-.07-.55-.2-.28-.25-.71-.37-1.27-.37-.79,0-1.19.16-1.19.48,0,.17.15.3.46.4.31.1.92.2,1.84.3,1.94.22,3.31.62,4.13,1.21Z"/>
    <path class="cls-1" d="M83.18,52.96c.82.59,1.23,1.47,1.23,2.64s-.6,2.13-1.79,2.85c-1.19.73-2.77,1.09-4.74,1.09s-3.5-.36-4.59-1.08c-1.09-.72-1.64-1.6-1.64-2.66,0-.26.14-.39.41-.39h3.63c.25,0,.45.07.6.22.33.3.9.45,1.72.45,1.12,0,1.68-.17,1.68-.5,0-.21-.18-.37-.53-.49-.35-.12-1.06-.24-2.11-.35-3.34-.39-5.01-1.62-5.01-3.71,0-1.17.54-2.12,1.61-2.85,1.07-.72,2.51-1.09,4.31-1.09s3.25.39,4.36,1.17,1.66,1.6,1.66,2.47c0,.12-.04.21-.11.28-.08.07-.18.11-.31.11h-3.81c-.21,0-.4-.07-.55-.2-.28-.25-.71-.37-1.27-.37-.79,0-1.19.16-1.19.48,0,.17.15.3.46.4.31.1.92.2,1.84.3,1.94.22,3.31.62,4.13,1.21Z"/>
    <path class="cls-1" d="M91.86,55.91h6.04c.13,0,.24.05.34.14.09.09.14.21.14.34v2.67c0,.13-.05.24-.14.34-.09.09-.21.14-.34.14h-10.34c-.13,0-.24-.05-.34-.14-.09-.09-.14-.21-.14-.34v-11.44c0-.13.05-.24.14-.34.09-.09.21-.14.34-.14h3.82c.13,0,.24.05.34.14.09.09.14.21.14.34v8.28Z"/>
    <path class="cls-1" d="M104.86,56.08h7.06c.13,0,.24.05.34.14.09.09.14.21.14.34v2.5c0,.13-.05.24-.14.34-.09.09-.21.14-.34.14h-11.19c-.13,0-.24-.05-.34-.14-.09-.09-.14-.21-.14-.34v-11.44c0-.13.05-.24.14-.34.09-.09.21-.14.34-.14h11.01c.13,0,.24.05.34.14.09.09.14.21.14.34v2.5c0,.13-.05.24-.14.34s-.21.14-.34.14h-6.89v1.12h5.91c.13,0,.24.05.34.14.09.09.14.21.14.34v2.3c0,.13-.05.24-.14.34-.09.09-.21.14-.34.14h-5.91v1.12Z"/>
    <path class="cls-1" d="M35.9,63.08h15.01c.17,0,.32.06.45.19.13.13.19.28.19.45v3.59c0,.17-.06.32-.19.45-.13.13-.28.19-.45.19h-9.28v1.51h7.74c.17,0,.32.06.45.19.13.13.19.28.19.45v3.56c0,.17-.06.32-.19.45-.13.13-.28.19-.45.19h-7.74v4.67c0,.17-.06.32-.19.45-.13.13-.28.19-.45.19h-5.1c-.17,0-.32-.06-.45-.19-.13-.13-.19-.28-.19-.45v-15.25c0-.17.06-.32.19-.45.13-.13.27-.19.45-.19Z"/>
    <path class="cls-1" d="M71.05,78.87c.03.06.05.15.05.26s-.05.22-.15.32-.22.15-.37.15h-5.36c-.47,0-.8-.2-.99-.59l-2.08-4.67h-1.98v4.63c0,.17-.06.32-.19.45-.13.13-.28.19-.45.19h-5.1c-.17,0-.32-.06-.45-.19-.13-.13-.19-.28-.19-.45v-15.25c0-.17.06-.32.19-.45.13-.13.27-.19.45-.19h9.18c2.16,0,3.86.51,5.12,1.53,1.26,1.02,1.89,2.42,1.89,4.18,0,2.14-.83,3.69-2.48,4.65l2.9,5.43ZM60.16,67.47v2.5h2.95c.35,0,.61-.11.8-.34s.28-.52.28-.86-.09-.65-.27-.91c-.18-.26-.45-.39-.81-.39h-2.95Z"/>
    <path class="cls-1" d="M78.65,75h9.42c.17,0,.32.06.45.19.13.13.19.28.19.45v3.33c0,.17-.06.32-.19.45s-.28.19-.45.19h-14.92c-.17,0-.32-.06-.45-.19-.13-.13-.19-.28-.19-.45v-15.25c0-.17.06-.32.19-.45.12-.13.27-.19.45-.19h14.68c.17,0,.32.06.45.19s.19.28.19.45v3.33c0,.17-.06.32-.19.45-.13.13-.28.19-.45.19h-9.18v1.49h7.88c.17,0,.32.06.45.19.13.13.19.28.19.45v3.07c0,.17-.06.32-.19.45s-.28.19-.45.19h-7.88v1.49Z"/>
    <path class="cls-1" d="M97.39,75h9.42c.17,0,.32.06.45.19.13.13.19.28.19.45v3.33c0,.17-.06.32-.19.45s-.28.19-.45.19h-14.92c-.17,0-.32-.06-.45-.19-.13-.13-.19-.28-.19-.45v-15.25c0-.17.06-.32.19-.45.12-.13.27-.19.45-.19h14.68c.17,0,.32.06.45.19s.19.28.19.45v3.33c0,.17-.06.32-.19.45-.13.13-.28.19-.45.19h-9.18v1.49h7.88c.17,0,.32.06.45.19.13.13.19.28.19.45v3.07c0,.17-.06.32-.19.45s-.28.19-.45.19h-7.88v1.49Z"/>
    <path class="cls-1" d="M27.06,87.66h4.11c.1,0,.19.04.27.11.08.08.11.17.11.27v1.5c0,1.43-.49,2.5-1.47,3.19-.98.69-2.27,1.04-3.87,1.04s-2.9-.34-3.87-1.02-1.47-1.72-1.47-3.14v-1.63c0-.71.14-1.33.42-1.88.28-.54.67-.98,1.17-1.31.98-.64,2.23-.97,3.75-.97.76,0,1.45.08,2.07.25s1.13.38,1.5.63c.37.25.69.52.96.81.46.51.69.96.69,1.35,0,.08-.03.15-.09.21-.06.06-.13.09-.22.09h-3.2c-.19,0-.33-.04-.41-.13-.29-.3-.69-.45-1.2-.45s-.9.09-1.19.28c-.29.19-.43.43-.43.72v2.28c0,.36.14.64.42.84.28.2.68.3,1.2.3s.91-.1,1.19-.3.42-.44.43-.71h-.88c-.1,0-.19-.04-.27-.11-.08-.08-.11-.17-.11-.27v-1.57c0-.1.04-.19.11-.27s.17-.11.27-.11Z"/>
    <path class="cls-1" d="M41.09,92.75c-.93.68-2.19,1.02-3.77,1.02s-2.84-.34-3.77-1.02c-.93-.68-1.4-1.74-1.4-3.19v-5.34c0-.1.04-.19.11-.26.08-.08.17-.11.27-.11h2.96c.1,0,.19.04.27.11s.11.16.11.26v5.54c0,.38.13.67.39.88.26.2.61.31,1.05.31s.8-.1,1.06-.31.39-.5.39-.88v-5.54c0-.1.04-.19.11-.26.08-.07.17-.11.27-.11h2.96c.1,0,.19.04.27.11.08.07.11.16.11.26v5.34c0,1.44-.46,2.51-1.39,3.19Z"/>
    <path class="cls-1" d="M45.88,93.76h-2.68c-.08,0-.16-.03-.22-.09-.06-.06-.09-.12-.09-.18s0-.1.01-.13l3.09-9.05c.08-.31.3-.47.64-.47h3.94c.34,0,.55.16.64.47l3.09,9.05s.01.07.01.13-.03.12-.09.18-.13.09-.22.09h-2.68c-.3,0-.51-.16-.64-.48l-.35-.99h-3.46l-.35.99c-.12.32-.34.48-.64.48ZM49.61,89.53l-1.01-2.95-1.01,2.95h2.01Z"/>
    <path class="cls-1" d="M65.42,93.32s.03.09.03.16-.03.13-.09.19-.13.09-.22.09h-3.21c-.28,0-.48-.12-.59-.35l-1.25-2.8h-1.19v2.78c0,.1-.04.19-.11.27s-.17.11-.27.11h-3.06c-.1,0-.19-.04-.27-.11s-.11-.17-.11-.27v-9.15c0-.1.04-.19.11-.27s.17-.11.27-.11h5.51c1.29,0,2.32.31,3.07.92.75.61,1.13,1.45,1.13,2.51,0,1.28-.5,2.21-1.49,2.79l1.74,3.26ZM58.9,86.48v1.5h1.77c.21,0,.37-.07.48-.21s.17-.31.17-.52-.05-.39-.16-.55c-.11-.16-.27-.23-.49-.23h-1.77Z"/>
    <path class="cls-1" d="M68.37,93.76h-2.68c-.08,0-.16-.03-.22-.09s-.09-.12-.09-.18,0-.1.01-.13l3.09-9.05c.08-.31.3-.47.64-.47h3.94c.34,0,.55.16.64.47l3.09,9.05s.01.07.01.13-.03.12-.09.18c-.06.06-.13.09-.22.09h-2.68c-.3,0-.51-.16-.64-.48l-.35-.99h-3.46l-.35.99c-.12.32-.33.48-.64.48ZM72.09,89.53l-1-2.95-1.01,2.95h2.01Z"/>
    <path class="cls-1" d="M84.09,83.85h2.63c.1,0,.19.04.27.11.08.08.11.17.11.27v9.15c0,.1-.04.19-.11.27-.08.08-.17.11-.27.11h-2.28c-.23,0-.42-.1-.57-.3l-3.09-3.94v3.85c0,.1-.04.19-.11.27-.08.08-.17.11-.27.11h-2.63c-.1,0-.19-.04-.27-.11-.08-.08-.11-.17-.11-.27v-9.15c0-.1.04-.19.11-.27.08-.08.17-.11.27-.11h2.29c.23,0,.41.09.55.28l3.09,4.26v-4.16c0-.1.04-.19.11-.27.08-.08.17-.11.27-.11Z"/>
    <path class="cls-1" d="M88.65,83.85h9.77c.1,0,.19.04.27.11.08.08.11.17.11.27v2.28c0,.1-.04.19-.11.27-.08.08-.17.11-.27.11h-3.04v6.49c0,.1-.04.19-.11.27-.08.08-.17.11-.27.11h-2.92c-.1,0-.19-.04-.27-.11-.08-.08-.11-.17-.11-.27v-6.49h-3.04c-.1,0-.19-.04-.27-.11s-.11-.17-.11-.27v-2.28c0-.1.04-.19.11-.27.08-.08.17-.11.27-.11Z"/>
    <path class="cls-1" d="M103.72,91h5.65c.1,0,.19.04.27.11.08.08.11.17.11.27v2c0,.1-.04.19-.11.27s-.17.11-.27.11h-8.95c-.1,0-.19-.04-.27-.11s-.11-.17-.11-.27v-9.15c0-.1.04-.19.11-.27s.17-.11.27-.11h8.81c.1,0,.19.04.27.11s.11.17.11.27v2c0,.1-.04.19-.11.27-.08.08-.17.11-.27.11h-5.51v.89h4.73c.1,0,.19.04.27.11.08.08.11.17.11.27v1.84c0,.1-.04.19-.11.27-.08.08-.17.11-.27.11h-4.73v.89Z"/>
    <path class="cls-1" d="M114.96,91h5.65c.1,0,.19.04.27.11.08.08.11.17.11.27v2c0,.1-.04.19-.11.27s-.17.11-.27.11h-8.95c-.1,0-.19-.04-.27-.11s-.11-.17-.11-.27v-9.15c0-.1.04-.19.11-.27s.17-.11.27-.11h8.81c.1,0,.19.04.27.11s.11.17.11.27v2c0,.1-.04.19-.11.27-.08.08-.17.11-.27.11h-5.51v.89h4.73c.1,0,.19.04.27.11.08.08.11.17.11.27v1.84c0,.1-.04.19-.11.27-.08.08-.17.11-.27.11h-4.73v.89Z"/>
  </g>
</svg>